<svg width="24" height="25" viewBox="0 0 24 25" fill="currentColor" xmlns="http://www.w3.org/2000/svg">
<g clip-path="url(#clip0_1_469)">
<path d="M13.5 2C13.5 1.17031 12.8297 0.5 12 0.5C11.1703 0.5 10.5 1.17031 10.5 2V13.3766L7.05938 9.93594C6.47344 9.35 5.52188 9.35 4.93594 9.93594C4.35 10.5219 4.35 11.4734 4.93594 12.0594L10.9359 18.0594C11.5219 18.6453 12.4734 18.6453 13.0594 18.0594L19.0594 12.0594C19.6453 11.4734 19.6453 10.5219 19.0594 9.93594C18.4734 9.35 17.5219 9.35 16.9359 9.93594L13.5 13.3766V2ZM3 17C1.34531 17 0 18.3453 0 20V21.5C0 23.1547 1.34531 24.5 3 24.5H21C22.6547 24.5 24 23.1547 24 21.5V20C24 18.3453 22.6547 17 21 17H16.2422L14.1188 19.1234C12.9469 20.2953 11.0484 20.2953 9.87656 19.1234L7.75781 17H3ZM20.25 19.625C20.5484 19.625 20.8345 19.7435 21.0455 19.9545C21.2565 20.1655 21.375 20.4516 21.375 20.75C21.375 21.0484 21.2565 21.3345 21.0455 21.5455C20.8345 21.7565 20.5484 21.875 20.25 21.875C19.9516 21.875 19.6655 21.7565 19.4545 21.5455C19.2435 21.3345 19.125 21.0484 19.125 20.75C19.125 20.4516 19.2435 20.1655 19.4545 19.9545C19.6655 19.7435 19.9516 19.625 20.25 19.625Z" fill="currentColor"/>
</g>
<defs>
<clipPath id="clip0_1_469">
<rect width="24" height="24" fill="currentColor" />
</clipPath>
</defs>
</svg>
